<svg xmlns="http://www.w3.org/2000/svg" xmlns:xlink="http://www.w3.org/1999/xlink" width="500" zoomAndPan="magnify" viewBox="0 0 375 374.999991" height="500" preserveAspectRatio="xMidYMid meet" version="1.0"><defs><g/><clipPath id="5c605cf7ad"><path d="M 89 165 L 375 165 L 375 207 L 89 207 Z M 89 165 " clip-rule="nonzero"/></clipPath><clipPath id="da21320266"><rect x="0" width="375" y="0" height="375"/></clipPath></defs><g transform="matrix(1, 0, 0, 1, 0, 0)"><g clip-path="url(#da21320266)"><g fill="#0cc0df" fill-opacity="1"><g transform="translate(-0.842223, 319.15704)"><g><path d="M 217.8125 -252.09375 L 258.15625 -252.09375 L 258.15625 0 L 217.8125 0 L 217.8125 -64.03125 C 210.414062 -41.507812 199.070312 -23.863281 183.78125 -11.09375 C 168.488281 1.675781 148.570312 8.0625 124.03125 8.0625 C 92.4375 8.0625 69.160156 -0.253906 54.203125 -16.890625 C 39.242188 -33.523438 31.765625 -58.316406 31.765625 -91.265625 L 31.765625 -252.09375 L 72.09375 -252.09375 L 72.09375 -95.796875 C 72.09375 -77.304688 74.695312 -62.9375 79.90625 -52.6875 C 85.125 -42.4375 92.519531 -35.289062 102.09375 -31.25 C 111.675781 -27.21875 122.851562 -25.203125 135.625 -25.203125 C 161.84375 -25.203125 182.09375 -36.546875 196.375 -59.234375 C 210.664062 -81.929688 217.8125 -114.117188 217.8125 -155.796875 Z M 217.8125 -252.09375 "/></g></g></g><path stroke-linecap="butt" transform="matrix(0, 1.260492, -1.260492, 0, 257.952643, 65.908018)" fill="none" stroke-linejoin="miter" d="M -0.00140268 16.498627 L 201.13528 16.498627 " stroke="#ff3131" stroke-width="33" stroke-opacity="1" stroke-miterlimit="4"/><g clip-path="url(#5c605cf7ad)"><path stroke-linecap="butt" transform="matrix(1.260492, 0.000000000000000356, -0.000000000000000356, 1.260492, 110.396263, 165.376981)" fill="none" stroke-linejoin="miter" d="M -0.00137375 16.500537 L 201.135309 16.500537 " stroke="#ff3131" stroke-width="33" stroke-opacity="1" stroke-miterlimit="4"/></g></g></g></svg>