<svg xmlns="http://www.w3.org/2000/svg" xmlns:xlink="http://www.w3.org/1999/xlink" width="500" zoomAndPan="magnify" viewBox="0 0 375 374.999991" height="500" preserveAspectRatio="xMidYMid meet" version="1.0"><defs><g/></defs><g fill="#0cc0df" fill-opacity="1"><g transform="translate(14.789066, 209.999986)"><g><path d="M 35.703125 -41.328125 L 42.3125 -41.328125 L 42.3125 0 L 35.703125 0 L 35.703125 -10.5 C 34.492188 -6.800781 32.632812 -3.90625 30.125 -1.8125 C 27.625 0.28125 24.359375 1.328125 20.328125 1.328125 C 15.148438 1.328125 11.332031 -0.0351562 8.875 -2.765625 C 6.425781 -5.492188 5.203125 -9.554688 5.203125 -14.953125 L 5.203125 -41.328125 L 11.8125 -41.328125 L 11.8125 -15.703125 C 11.8125 -12.671875 12.238281 -10.3125 13.09375 -8.625 C 13.945312 -6.945312 15.160156 -5.773438 16.734375 -5.109375 C 18.304688 -4.453125 20.140625 -4.125 22.234375 -4.125 C 26.535156 -4.125 29.851562 -5.984375 32.1875 -9.703125 C 34.53125 -13.429688 35.703125 -18.710938 35.703125 -25.546875 Z M 35.703125 -41.328125 "/></g></g></g><g fill="#0cc0df" fill-opacity="1"><g transform="translate(62.314065, 209.999986)"><g><path d="M 27.765625 -41.90625 L 29.265625 -41.90625 L 29.265625 -35.375 L 27.53125 -35.375 C 23.445312 -35.539062 20.328125 -34.738281 18.171875 -32.96875 C 16.023438 -31.207031 14.566406 -28.785156 13.796875 -25.703125 C 13.023438 -22.617188 12.640625 -19.117188 12.640625 -15.203125 L 12.640625 0 L 6.03125 0 L 6.03125 -41.328125 L 12.640625 -41.328125 L 12.640625 -30.421875 C 13.910156 -33.835938 15.769531 -36.601562 18.21875 -38.71875 C 20.675781 -40.84375 23.859375 -41.90625 27.765625 -41.90625 Z M 27.765625 -41.90625 "/></g></g></g><g fill="#0cc0df" fill-opacity="1"><g transform="translate(91.738116, 209.999986)"><g><path d="M 38.4375 -41.328125 L 45.046875 -41.328125 L 45.046875 0.078125 C 45.046875 3.710938 44.382812 6.828125 43.0625 9.421875 C 41.738281 12.015625 39.585938 14 36.609375 15.375 C 33.640625 16.75 29.644531 17.4375 24.625 17.4375 C 18.457031 17.4375 13.734375 16.140625 10.453125 13.546875 C 7.171875 10.960938 5.335938 7.328125 4.953125 2.640625 L 11.484375 2.640625 C 11.765625 5.335938 12.878906 7.609375 14.828125 9.453125 C 16.785156 11.304688 20.050781 12.234375 24.625 12.234375 C 29.53125 12.234375 33.054688 11.296875 35.203125 9.421875 C 37.359375 7.546875 38.4375 4.40625 38.4375 0 L 38.4375 -8.921875 C 35.625 -3.578125 30.5 -0.90625 23.0625 -0.90625 C 16.5625 -0.90625 11.753906 -2.789062 8.640625 -6.5625 C 5.523438 -10.34375 3.96875 -15.398438 3.96875 -21.734375 C 3.96875 -28.078125 5.523438 -33.117188 8.640625 -36.859375 C 11.753906 -40.609375 16.5625 -42.484375 23.0625 -42.484375 C 26.8125 -42.484375 29.96875 -41.765625 32.53125 -40.328125 C 35.09375 -38.898438 37.0625 -36.863281 38.4375 -34.21875 Z M 24.625 -6.109375 C 29.039062 -6.109375 32.445312 -7.304688 34.84375 -9.703125 C 37.238281 -12.109375 38.4375 -16.117188 38.4375 -21.734375 C 38.4375 -27.304688 37.238281 -31.289062 34.84375 -33.6875 C 32.445312 -36.082031 29.039062 -37.28125 24.625 -37.28125 C 19.945312 -37.28125 16.460938 -36.082031 14.171875 -33.6875 C 11.890625 -31.289062 10.75 -27.304688 10.75 -21.734375 C 10.75 -16.171875 11.890625 -12.175781 14.171875 -9.75 C 16.460938 -7.320312 19.945312 -6.109375 24.625 -6.109375 Z M 24.625 -6.109375 "/></g></g></g><g fill="#0cc0df" fill-opacity="1"><g transform="translate(141.246741, 209.999986)"><g><path d="M 24.71875 -3.71875 C 28.789062 -3.71875 31.832031 -4.570312 33.84375 -6.28125 C 35.851562 -7.988281 37.164062 -10.140625 37.78125 -12.734375 L 43.8125 -12.734375 C 43.53125 -10.640625 42.742188 -8.503906 41.453125 -6.328125 C 40.160156 -4.148438 38.148438 -2.328125 35.421875 -0.859375 C 32.691406 0.597656 29.039062 1.328125 24.46875 1.328125 C 19.726562 1.328125 15.84375 0.347656 12.8125 -1.609375 C 9.78125 -3.566406 7.546875 -6.210938 6.109375 -9.546875 C 4.679688 -12.878906 3.96875 -16.613281 3.96875 -20.75 C 3.96875 -24.882812 4.722656 -28.601562 6.234375 -31.90625 C 7.753906 -35.207031 10.03125 -37.820312 13.0625 -39.75 C 16.09375 -41.6875 19.894531 -42.65625 24.46875 -42.65625 C 28.601562 -42.65625 32.113281 -41.769531 35 -40 C 37.894531 -38.238281 40.097656 -35.816406 41.609375 -32.734375 C 43.128906 -29.648438 43.890625 -26.09375 43.890625 -22.0625 C 43.890625 -21.519531 43.890625 -21.023438 43.890625 -20.578125 C 43.890625 -20.140625 43.832031 -19.671875 43.71875 -19.171875 L 10.5 -19.171875 C 10.769531 -13.492188 12.171875 -9.5 14.703125 -7.1875 C 17.242188 -4.875 20.582031 -3.71875 24.71875 -3.71875 Z M 24.546875 -37.609375 C 20.640625 -37.609375 17.457031 -36.585938 15 -34.546875 C 12.550781 -32.503906 11.101562 -29.035156 10.65625 -24.140625 L 37.4375 -24.140625 C 37.269531 -28.878906 36.039062 -32.304688 33.75 -34.421875 C 31.46875 -36.546875 28.398438 -37.609375 24.546875 -37.609375 Z M 24.546875 -37.609375 "/></g></g></g><g fill="#0cc0df" fill-opacity="1"><g transform="translate(187.531921, 209.999986)"><g><path d="M 28.515625 -42.65625 C 33.691406 -42.65625 37.4375 -41.273438 39.75 -38.515625 C 42.070312 -35.765625 43.234375 -31.71875 43.234375 -26.375 L 43.234375 0 L 36.609375 0 L 36.609375 -25.625 C 36.609375 -30.03125 35.710938 -33.046875 33.921875 -34.671875 C 32.140625 -36.296875 29.734375 -37.109375 26.703125 -37.109375 C 22.128906 -37.109375 18.640625 -35.332031 16.234375 -31.78125 C 13.835938 -28.226562 12.640625 -22.894531 12.640625 -15.78125 L 12.640625 0 L 6.03125 0 L 6.03125 -41.328125 L 12.640625 -41.328125 L 12.640625 -30.5 C 13.910156 -34.25 15.851562 -37.210938 18.46875 -39.390625 C 21.09375 -41.566406 24.441406 -42.65625 28.515625 -42.65625 Z M 28.515625 -42.65625 "/></g></g></g><g fill="#0cc0df" fill-opacity="1"><g transform="translate(235.139592, 209.999986)"><g><path d="M 19.5 0 C 15.539062 0 12.882812 -0.785156 11.53125 -2.359375 C 10.175781 -3.929688 9.5 -6.367188 9.5 -9.671875 L 9.5 -36.125 L 1.65625 -36.125 L 1.65625 -39.84375 L 10.078125 -41.90625 L 12.5625 -50.5 L 16.125 -50.5 L 16.125 -41.328125 L 29.75 -41.328125 L 29.75 -36.125 L 16.125 -36.125 L 16.125 -5.375 L 29.265625 -5.375 L 29.265625 0 Z M 19.5 0 "/></g></g></g><g fill="#0cc0df" fill-opacity="1"><g transform="translate(267.291308, 209.999986)"><g><path d="M 27.765625 -41.90625 L 29.265625 -41.90625 L 29.265625 -35.375 L 27.53125 -35.375 C 23.445312 -35.539062 20.328125 -34.738281 18.171875 -32.96875 C 16.023438 -31.207031 14.566406 -28.785156 13.796875 -25.703125 C 13.023438 -22.617188 12.640625 -19.117188 12.640625 -15.203125 L 12.640625 0 L 6.03125 0 L 6.03125 -41.328125 L 12.640625 -41.328125 L 12.640625 -30.421875 C 13.910156 -33.835938 15.769531 -36.601562 18.21875 -38.71875 C 20.675781 -40.84375 23.859375 -41.90625 27.765625 -41.90625 Z M 27.765625 -41.90625 "/></g></g></g><g fill="#0cc0df" fill-opacity="1"><g transform="translate(297.541931, 209.999986)"><g><path d="M 5.125 -48.109375 L 5.125 -54.96875 L 13.640625 -54.96875 L 13.640625 -48.109375 Z M 6.03125 0 L 6.03125 -41.328125 L 12.640625 -41.328125 L 12.640625 0 Z M 6.03125 0 "/></g></g></g><g fill="#0cc0df" fill-opacity="1"><g transform="translate(314.898818, 209.999986)"><g><path d="M 18.4375 1.078125 C 14.46875 1.078125 11.203125 0.0546875 8.640625 -1.984375 C 6.078125 -4.023438 4.796875 -7 4.796875 -10.90625 C 4.796875 -14.269531 5.769531 -17 7.71875 -19.09375 C 9.675781 -21.1875 12.890625 -22.59375 17.359375 -23.3125 L 27.859375 -25.046875 C 30.054688 -25.429688 31.632812 -25.976562 32.59375 -26.6875 C 33.5625 -27.40625 34.046875 -28.539062 34.046875 -30.09375 C 34.046875 -32.1875 33.359375 -33.945312 31.984375 -35.375 C 30.609375 -36.8125 27.910156 -37.53125 23.890625 -37.53125 C 19.867188 -37.53125 16.988281 -36.675781 15.25 -34.96875 C 13.507812 -33.257812 12.53125 -31.050781 12.3125 -28.34375 L 5.78125 -28.34375 C 5.894531 -32.757812 7.476562 -36.257812 10.53125 -38.84375 C 13.59375 -41.4375 17.960938 -42.734375 23.640625 -42.734375 C 29.316406 -42.734375 33.476562 -41.5625 36.125 -39.21875 C 38.769531 -36.875 40.09375 -33.832031 40.09375 -30.09375 L 40.09375 -10.25 C 40.09375 -8.757812 40.117188 -7.1875 40.171875 -5.53125 C 40.222656 -3.882812 40.359375 -2.039062 40.578125 0 L 34.546875 0 C 34.378906 -1.757812 34.238281 -3.425781 34.125 -5 C 34.019531 -6.570312 33.96875 -8.128906 33.96875 -9.671875 C 33.476562 -8.015625 32.613281 -6.359375 31.375 -4.703125 C 30.132812 -3.054688 28.460938 -1.679688 26.359375 -0.578125 C 24.265625 0.523438 21.625 1.078125 18.4375 1.078125 Z M 19.75 -4.125 C 23 -4.125 25.6875 -4.867188 27.8125 -6.359375 C 29.9375 -7.847656 31.503906 -9.773438 32.515625 -12.140625 C 33.535156 -14.515625 34.046875 -17 34.046875 -19.59375 L 34.046875 -23.140625 C 33.003906 -22.421875 31.90625 -21.851562 30.75 -21.4375 C 29.59375 -21.03125 28.210938 -20.660156 26.609375 -20.328125 L 19.75 -18.921875 C 16.945312 -18.378906 14.867188 -17.515625 13.515625 -16.328125 C 12.160156 -15.140625 11.484375 -13.414062 11.484375 -11.15625 C 11.484375 -8.789062 12.253906 -7.023438 13.796875 -5.859375 C 15.347656 -4.703125 17.332031 -4.125 19.75 -4.125 Z M 19.75 -4.125 "/></g></g></g><path stroke-linecap="butt" transform="matrix(0, 0.75, -0.75, 0, 270.329869, 158.091683)" fill="none" stroke-linejoin="miter" d="M -0.00245263 5.502326 L 42.049633 5.502326 " stroke="#ffffff" stroke-width="11" stroke-opacity="1" stroke-miterlimit="4"/><path stroke-linecap="butt" transform="matrix(0, 0.75, -0.75, 0, 251.306062, 155.963339)" fill="none" stroke-linejoin="miter" d="M 0.00200586 4.501832 L 42.048884 4.501832 " stroke="#ff3131" stroke-width="9" stroke-opacity="1" stroke-miterlimit="4"/><path stroke-linecap="butt" transform="matrix(-0.75, 0, 0, -0.75, 263.998638, 174.593074)" fill="none" stroke-linejoin="miter" d="M -0.00181551 4.499099 L 42.050271 4.499099 " stroke="#ff3131" stroke-width="9" stroke-opacity="1" stroke-miterlimit="4"/></svg>